<svg width="192" height="192" viewBox="0 0 192 192" fill="none" xmlns="http://www.w3.org/2000/svg">
<path fill-rule="evenodd" clip-rule="evenodd" d="M18.2956 4.53355C17.0747 8.35886 16.8529 11.6107 16.8756 25.3531C16.9007 40.496 17.0574 42.2768 19.106 50.7288C23.4224 68.532 31.3446 88.4054 40.9979 105.647L46.7234 115.873L40.4062 116.26C32.9723 116.716 29.2773 118.421 27.2342 122.337C25.9999 124.701 25.8636 127.867 25.8636 154.126C25.8636 186.239 25.9098 186.572 30.8156 190.052C32.9284 191.552 34.0083 191.621 55.1095 191.621H77.1918L77.4207 185.283L77.6503 178.944L74.5744 176.4C72.8832 175 70.906 172.424 70.1819 170.674C68.9233 167.632 68.9311 167.406 70.3676 165.543C71.7884 163.7 72.3088 163.582 79.9151 163.378C89.0057 163.132 91.6898 164.056 91.6898 167.429C91.6898 170.231 88.9352 174.97 86.2221 176.838C83.8883 178.444 83.8531 178.57 83.8531 185.234V192H104.605C128.243 192 130.306 191.628 133.406 186.81C135.155 184.091 135.188 183.606 135.428 156.777C135.562 141.779 135.453 128.061 135.184 126.292C134.641 122.706 131.702 118.825 128.592 117.585C127.476 117.139 123.861 116.573 120.559 116.324L114.554 115.873L118.991 109.428C126.532 98.4755 137.11 81.1957 137.134 79.7898C137.139 79.5247 134.587 77.8362 131.461 76.0365C120.678 69.8266 112.278 62.6933 109.389 57.2917C107.511 53.7808 107.832 53.7058 111.682 56.7554C125.71 67.8662 137.816 75.0033 151.439 80.1943C159.413 83.2333 172.735 85.877 182.905 86.4383L192 86.9405V84.7445C192 81.3775 188.337 71.5029 185.248 66.5399C175.323 50.5963 159.785 37.991 135.967 26.5628C128.64 23.0473 121.877 19.9575 120.937 19.6977C119.475 19.2932 118.777 19.9635 116.067 24.3721C105.075 42.2579 92.479 78.3938 87.6711 105.836L85.8467 116.251H81.4307H77.0155L76.5179 112.153C75.5626 104.302 72.0509 88.541 69.2454 79.5133C60.3005 50.7341 45.7744 26.0969 26.1535 6.42727L19.7431 0L18.2956 4.53355ZM170.244 155.83L170.449 187.076H179.069H187.69L187.894 155.83L188.099 124.584H179.069H170.04L170.244 155.83ZM157.528 137.132C150.606 140.911 149.687 141.206 144.205 141.409L138.318 141.627V155.641V169.654L143.737 169.881C147.351 170.032 149.831 170.559 151.182 171.462C153.714 173.154 164.983 179.123 165.647 179.123C165.918 179.123 166.139 168.726 166.139 156.019C166.139 143.313 165.875 132.951 165.551 132.994C165.227 133.037 161.618 134.899 157.528 137.132ZM0 155.641V174.578H6.26939H12.5388V171.231C12.5388 165.846 12.8852 165.488 18.1083 165.488H22.7265V155.677V145.865L17.8286 145.64L12.9306 145.415L12.6955 141.059L12.4604 136.704H6.2302H0V155.641Z" fill="#F4000C"/>
</svg>
