<svg width="500" height="626" viewBox="0 0 500 626" fill="none" xmlns="http://www.w3.org/2000/svg">
<rect width="500" height="625.622" fill="#C5C5C5"/>
<path d="M146.649 451.315V487.236H139.248L124.816 463.157V487.236H117.414V451.315H124.816L139.273 475.419V451.315H146.649ZM184.111 468.437V470.139C184.111 472.87 183.741 475.32 183.001 477.491C182.26 479.662 181.216 481.513 179.867 483.042C178.519 484.555 176.907 485.715 175.032 486.521C173.173 487.327 171.109 487.73 168.839 487.73C166.586 487.73 164.522 487.327 162.647 486.521C160.789 485.715 159.177 484.555 157.812 483.042C156.446 481.513 155.386 479.662 154.629 477.491C153.889 475.32 153.519 472.87 153.519 470.139V468.437C153.519 465.69 153.889 463.24 154.629 461.085C155.369 458.914 156.414 457.064 157.762 455.534C159.127 454.005 160.739 452.837 162.598 452.031C164.473 451.225 166.537 450.822 168.79 450.822C171.06 450.822 173.124 451.225 174.983 452.031C176.858 452.837 178.469 454.005 179.818 455.534C181.183 457.064 182.236 458.914 182.976 461.085C183.732 463.24 184.111 465.69 184.111 468.437ZM176.635 470.139V468.388C176.635 466.48 176.463 464.802 176.117 463.355C175.772 461.908 175.262 460.69 174.588 459.704C173.913 458.717 173.091 457.977 172.121 457.483C171.15 456.973 170.04 456.718 168.79 456.718C167.54 456.718 166.43 456.973 165.46 457.483C164.506 457.977 163.691 458.717 163.017 459.704C162.359 460.69 161.858 461.908 161.512 463.355C161.167 464.802 160.994 466.48 160.994 468.388V470.139C160.994 472.031 161.167 473.708 161.512 475.172C161.858 476.62 162.367 477.845 163.042 478.848C163.716 479.835 164.539 480.583 165.509 481.093C166.479 481.603 167.589 481.858 168.839 481.858C170.089 481.858 171.2 481.603 172.17 481.093C173.14 480.583 173.955 479.835 174.612 478.848C175.27 477.845 175.772 476.62 176.117 475.172C176.463 473.708 176.635 472.031 176.635 470.139ZM205.339 451.315V487.236H197.962V451.315H205.339ZM216.391 451.315V457.113H187.082V451.315H216.391ZM242.293 451.315V487.236H234.891V451.315H242.293ZM256.602 466.661V472.434H240.27V466.661H256.602ZM258.329 451.315V457.113H240.27V451.315H258.329ZM293.644 468.437V470.139C293.644 472.87 293.274 475.32 292.534 477.491C291.793 479.662 290.749 481.513 289.4 483.042C288.052 484.555 286.44 485.715 284.565 486.521C282.706 487.327 280.642 487.73 278.372 487.73C276.119 487.73 274.055 487.327 272.18 486.521C270.322 485.715 268.71 484.555 267.345 483.042C265.979 481.513 264.919 479.662 264.162 477.491C263.422 475.32 263.052 472.87 263.052 470.139V468.437C263.052 465.69 263.422 463.24 264.162 461.085C264.902 458.914 265.947 457.064 267.295 455.534C268.66 454.005 270.272 452.837 272.131 452.031C274.006 451.225 276.07 450.822 278.323 450.822C280.593 450.822 282.657 451.225 284.516 452.031C286.391 452.837 288.002 454.005 289.351 455.534C290.716 457.064 291.769 458.914 292.509 461.085C293.266 463.24 293.644 465.69 293.644 468.437ZM286.169 470.139V468.388C286.169 466.48 285.996 464.802 285.65 463.355C285.305 461.908 284.795 460.69 284.121 459.704C283.446 458.717 282.624 457.977 281.654 457.483C280.683 456.973 279.573 456.718 278.323 456.718C277.073 456.718 275.963 456.973 274.993 457.483C274.039 457.977 273.224 458.717 272.55 459.704C271.892 460.69 271.391 461.908 271.045 463.355C270.7 464.802 270.527 466.48 270.527 468.388V470.139C270.527 472.031 270.7 473.708 271.045 475.172C271.391 476.62 271.9 477.845 272.575 478.848C273.249 479.835 274.072 480.583 275.042 481.093C276.012 481.603 277.123 481.858 278.372 481.858C279.622 481.858 280.733 481.603 281.703 481.093C282.673 480.583 283.488 479.835 284.145 478.848C284.803 477.845 285.305 476.62 285.65 475.172C285.996 473.708 286.169 472.031 286.169 470.139ZM320.324 451.315H327.701V475.049C327.701 477.812 327.108 480.139 325.924 482.031C324.756 483.922 323.136 485.345 321.064 486.299C319.008 487.253 316.64 487.73 313.959 487.73C311.278 487.73 308.893 487.253 306.804 486.299C304.732 485.345 303.104 483.922 301.919 482.031C300.752 480.139 300.168 477.812 300.168 475.049V451.315H307.569V475.049C307.569 476.661 307.824 477.977 308.334 478.996C308.844 480.016 309.576 480.764 310.53 481.241C311.5 481.718 312.643 481.957 313.959 481.957C315.308 481.957 316.451 481.718 317.388 481.241C318.342 480.764 319.066 480.016 319.559 478.996C320.069 477.977 320.324 476.661 320.324 475.049V451.315ZM364.545 451.315V487.236H357.144L342.711 463.157V487.236H335.31V451.315H342.711L357.168 475.419V451.315H364.545ZM383.528 487.236H375.707L375.757 481.463H383.528C385.469 481.463 387.105 481.027 388.437 480.156C389.77 479.268 390.773 477.977 391.447 476.282C392.138 474.588 392.483 472.541 392.483 470.139V468.388C392.483 466.546 392.286 464.926 391.891 463.528C391.513 462.13 390.946 460.954 390.189 460C389.432 459.046 388.503 458.33 387.401 457.853C386.299 457.36 385.033 457.113 383.602 457.113H375.559V451.315H383.602C386.003 451.315 388.199 451.727 390.189 452.549C392.196 453.355 393.931 454.514 395.395 456.028C396.858 457.541 397.985 459.35 398.775 461.455C399.58 463.544 399.983 465.871 399.983 468.437V470.139C399.983 472.689 399.58 475.016 398.775 477.121C397.985 479.226 396.858 481.036 395.395 482.549C393.947 484.046 392.212 485.205 390.189 486.027C388.182 486.833 385.962 487.236 383.528 487.236ZM379.901 451.315V487.236H372.5V451.315H379.901Z" fill="white"/>
<path d="M187.605 192.658C187.605 227.261 215.764 255.42 250.368 255.42C284.971 255.42 313.13 227.261 313.13 192.658C313.13 158.054 284.971 129.895 250.368 129.895C215.764 129.895 187.605 158.054 187.605 192.658ZM361.946 394.893H375.893V380.946C375.893 327.124 332.085 283.315 278.262 283.315H222.473C168.636 283.315 124.842 327.124 124.842 380.946V394.893H361.946Z" fill="white"/>
</svg>
