<svg width="500" height="626" viewBox="0 0 500 626" fill="none" xmlns="http://www.w3.org/2000/svg">
<rect width="500" height="625.622" fill="#C5C5C5"/>
<path d="M168.826 333.933V360.238H163.406L152.837 342.605V360.238H147.417V333.933H152.837L163.424 351.584V333.933H168.826ZM196.259 346.471V347.718C196.259 349.717 195.988 351.512 195.446 353.102C194.904 354.692 194.139 356.047 193.151 357.167C192.164 358.275 190.983 359.124 189.61 359.714C188.249 360.304 186.738 360.599 185.076 360.599C183.426 360.599 181.914 360.304 180.541 359.714C179.18 359.124 178 358.275 177 357.167C176 356.047 175.224 354.692 174.67 353.102C174.128 351.512 173.857 349.717 173.857 347.718V346.471C173.857 344.46 174.128 342.665 174.67 341.088C175.212 339.498 175.976 338.143 176.964 337.023C177.964 335.903 179.144 335.047 180.505 334.457C181.878 333.867 183.39 333.572 185.04 333.572C186.702 333.572 188.213 333.867 189.574 334.457C190.947 335.047 192.128 335.903 193.115 337.023C194.115 338.143 194.886 339.498 195.428 341.088C195.982 342.665 196.259 344.46 196.259 346.471ZM190.785 347.718V346.435C190.785 345.038 190.658 343.81 190.405 342.75C190.152 341.69 189.779 340.799 189.285 340.076C188.791 339.353 188.189 338.811 187.479 338.45C186.768 338.077 185.955 337.89 185.04 337.89C184.124 337.89 183.311 338.077 182.601 338.45C181.902 338.811 181.306 339.353 180.812 340.076C180.33 340.799 179.963 341.69 179.71 342.75C179.457 343.81 179.331 345.038 179.331 346.435V347.718C179.331 349.103 179.457 350.332 179.71 351.404C179.963 352.463 180.336 353.361 180.83 354.095C181.324 354.818 181.926 355.366 182.637 355.74C183.347 356.113 184.16 356.3 185.076 356.3C185.991 356.3 186.804 356.113 187.515 355.74C188.225 355.366 188.822 354.818 189.303 354.095C189.785 353.361 190.152 352.463 190.405 351.404C190.658 350.332 190.785 349.103 190.785 347.718ZM211.804 333.933V360.238H206.402V333.933H211.804ZM219.898 333.933V338.179H198.435V333.933H219.898ZM238.865 333.933V360.238H233.445V333.933H238.865ZM249.344 345.171V349.398H237.384V345.171H249.344ZM250.608 333.933V338.179H237.384V333.933H250.608ZM276.469 346.471V347.718C276.469 349.717 276.198 351.512 275.656 353.102C275.114 354.692 274.35 356.047 273.362 357.167C272.374 358.275 271.194 359.124 269.821 359.714C268.46 360.304 266.948 360.599 265.286 360.599C263.636 360.599 262.125 360.304 260.752 359.714C259.391 359.124 258.21 358.275 257.211 357.167C256.211 356.047 255.434 354.692 254.88 353.102C254.338 351.512 254.067 349.717 254.067 347.718V346.471C254.067 344.46 254.338 342.665 254.88 341.088C255.422 339.498 256.187 338.143 257.174 337.023C258.174 335.903 259.354 335.047 260.715 334.457C262.089 333.867 263.6 333.572 265.25 333.572C266.912 333.572 268.424 333.867 269.785 334.457C271.158 335.047 272.338 335.903 273.326 337.023C274.325 338.143 275.096 339.498 275.638 341.088C276.192 342.665 276.469 344.46 276.469 346.471ZM270.995 347.718V346.435C270.995 345.038 270.869 343.81 270.616 342.75C270.363 341.69 269.99 340.799 269.496 340.076C269.002 339.353 268.4 338.811 267.689 338.45C266.978 338.077 266.166 337.89 265.25 337.89C264.335 337.89 263.522 338.077 262.811 338.45C262.113 338.811 261.516 339.353 261.023 340.076C260.541 340.799 260.173 341.69 259.921 342.75C259.668 343.81 259.541 345.038 259.541 346.435V347.718C259.541 349.103 259.668 350.332 259.921 351.404C260.173 352.463 260.547 353.361 261.041 354.095C261.534 354.818 262.137 355.366 262.847 355.74C263.558 356.113 264.371 356.3 265.286 356.3C266.202 356.3 267.015 356.113 267.725 355.74C268.436 355.366 269.032 354.818 269.514 354.095C269.996 353.361 270.363 352.463 270.616 351.404C270.869 350.332 270.995 349.103 270.995 347.718ZM296.007 333.933H301.409V351.313C301.409 353.337 300.975 355.041 300.108 356.426C299.253 357.811 298.067 358.853 296.549 359.552C295.044 360.25 293.309 360.599 291.346 360.599C289.383 360.599 287.636 360.25 286.107 359.552C284.589 358.853 283.397 357.811 282.53 356.426C281.674 355.041 281.247 353.337 281.247 351.313V333.933H286.667V351.313C286.667 352.494 286.853 353.457 287.227 354.204C287.6 354.951 288.136 355.499 288.835 355.848C289.545 356.197 290.382 356.372 291.346 356.372C292.334 356.372 293.171 356.197 293.857 355.848C294.556 355.499 295.086 354.951 295.447 354.204C295.82 353.457 296.007 352.494 296.007 351.313V333.933ZM328.39 333.933V360.238H322.97L312.401 342.605V360.238H306.981V333.933H312.401L322.988 351.584V333.933H328.39ZM342.291 360.238H336.564L336.6 356.01H342.291C343.712 356.01 344.911 355.691 345.886 355.053C346.862 354.403 347.597 353.457 348.09 352.217C348.596 350.976 348.849 349.476 348.849 347.718V346.435C348.849 345.086 348.705 343.9 348.416 342.876C348.139 341.852 347.723 340.991 347.169 340.293C346.615 339.594 345.934 339.07 345.128 338.721C344.321 338.36 343.393 338.179 342.345 338.179H336.456V333.933H342.345C344.104 333.933 345.712 334.234 347.169 334.837C348.638 335.427 349.909 336.276 350.981 337.384C352.053 338.492 352.878 339.817 353.456 341.359C354.046 342.888 354.341 344.593 354.341 346.471V347.718C354.341 349.585 354.046 351.289 353.456 352.831C352.878 354.372 352.053 355.697 350.981 356.805C349.921 357.901 348.65 358.751 347.169 359.353C345.7 359.943 344.074 360.238 342.291 360.238ZM339.635 333.933V360.238H334.215V333.933H339.635Z" fill="white"/>
<g clip-path="url(#clip0_456_489)">
<path d="M229.521 213.754C229.521 217.902 227.875 221.88 224.945 224.814C222.014 227.747 218.04 229.395 213.896 229.395C209.752 229.395 205.778 227.747 202.847 224.814C199.917 221.88 198.271 217.902 198.271 213.754C198.271 209.606 199.917 205.628 202.847 202.695C205.778 199.761 209.752 198.114 213.896 198.114C218.04 198.114 222.014 199.761 224.945 202.695C227.875 205.628 229.521 209.606 229.521 213.754Z" fill="white"/>
<path d="M182.625 177.26C178.481 177.26 174.507 178.907 171.576 181.841C168.646 184.774 167 188.752 167 192.9V286.743C167 290.891 168.646 294.87 171.576 297.803C174.507 300.736 178.481 302.384 182.625 302.384H318.042C322.186 302.384 326.16 300.736 329.09 297.803C332.02 294.87 333.667 290.891 333.667 286.743V192.9C333.667 188.752 332.02 184.774 329.09 181.841C326.16 178.907 322.186 177.26 318.042 177.26H182.625ZM318.042 187.687C319.423 187.687 320.748 188.236 321.725 189.214C322.701 190.191 323.25 191.517 323.25 192.9V255.462L283.927 235.161C282.95 234.671 281.844 234.501 280.766 234.675C279.687 234.849 278.69 235.358 277.917 236.131L239.271 274.815L211.562 256.338C210.562 255.671 209.362 255.372 208.166 255.489C206.97 255.607 205.851 256.135 205 256.985L177.438 281.53V287.16C177.425 287.022 177.418 286.883 177.417 286.743V192.9C177.417 191.517 177.965 190.191 178.942 189.214C179.919 188.236 181.244 187.687 182.625 187.687H318.042Z" fill="white"/>
</g>
<defs>
<clipPath id="clip0_456_489">
<rect width="166.667" height="166.833" fill="white" transform="translate(167 156.406)"/>
</clipPath>
</defs>
</svg>
