<svg width="350" height="350" viewBox="0 0 350 350" fill="none" xmlns="http://www.w3.org/2000/svg">
<g clip-path="url(#clip0_457_499)">
<rect width="350" height="350" fill="#C5C5C5"/>
<path d="M175 75C162.639 75 150.555 78.6656 140.277 85.5332C129.999 92.4007 121.988 102.162 117.258 113.582C112.527 125.003 111.289 137.569 113.701 149.693C116.113 161.817 122.065 172.953 130.806 181.694C139.547 190.435 150.683 196.388 162.807 198.799C174.931 201.211 187.497 199.973 198.918 195.242C210.338 190.512 220.099 182.501 226.967 172.223C233.834 161.945 237.5 149.861 237.5 137.5C237.5 120.924 230.915 105.027 219.194 93.3058C207.473 81.5848 191.576 75 175 75Z" fill="white"/>
<path d="M175 0C140.388 0 106.554 10.2636 77.7753 29.4928C48.9967 48.7221 26.5665 76.0533 13.3212 108.03C0.0758246 140.007 -3.38976 175.194 3.36265 209.141C10.1151 243.087 26.7822 274.27 51.2564 298.744C75.7306 323.218 106.913 339.885 140.859 346.637C174.806 353.39 209.993 349.924 241.97 336.679C273.947 323.434 301.278 301.003 320.507 272.225C339.737 243.446 350 209.612 350 175C349.947 128.603 331.493 84.1222 298.685 51.3148C265.878 18.5074 221.397 0.052934 175 0ZM274.9 286.575C274.651 270.179 267.971 254.537 256.299 243.02C244.627 231.502 228.898 225.031 212.5 225H137.5C121.102 225.031 105.373 231.502 93.7012 243.02C82.0293 254.537 75.3492 270.179 75.1001 286.575C52.4321 266.334 36.4467 239.686 29.2605 210.158C22.0743 180.631 24.0263 149.617 34.8581 121.223C45.6898 92.8297 64.8903 68.3958 89.9172 51.1571C114.944 33.9183 144.617 24.6878 175.006 24.6878C205.396 24.6878 235.069 33.9183 260.095 51.1571C285.122 68.3958 304.323 92.8297 315.155 121.223C325.986 149.617 327.938 180.631 320.752 210.158C313.566 239.686 297.581 266.334 274.913 286.575H274.9Z" fill="white"/>
</g>
<defs>
<clipPath id="clip0_457_499">
<rect width="350" height="350" fill="white"/>
</clipPath>
</defs>
</svg>
